<svg width="261" height="263" viewBox="0 0 261 263" fill="none" xmlns="http://www.w3.org/2000/svg">
<rect width="261" height="263" fill="white"/>
<path d="M184 7H259V78C259 104.51 237.51 126 211 126H136V55C136 28.4903 157.49 7 184 7Z" stroke="#E1D7A3" stroke-width="4"/>
<path d="M254.384 185.605L254.008 260.604L183.009 260.249C156.5 260.116 135.117 238.518 135.25 212.009L135.625 137.01L206.624 137.365C233.134 137.498 254.516 159.095 254.384 185.605Z" stroke="#E1D7A3" stroke-width="4"/>
<path d="M124.384 50.6046L124.008 125.604L53.0094 125.249C26.5 125.116 5.11748 103.518 5.25008 77.009L5.62524 2.00998L76.6244 2.36513C103.134 2.49774 124.516 24.0953 124.384 50.6046Z" stroke="#E1D7A3" stroke-width="4"/>
<path d="M50 137H125V208C125 234.51 103.51 256 77 256H2V185C2 158.49 23.4903 137 50 137Z" stroke="#E1D7A3" stroke-width="4"/>
</svg>
